<svg width="34" height="15" viewBox="0 0 34 15" fill="none" xmlns="http://www.w3.org/2000/svg">
<path fill-rule="evenodd" clip-rule="evenodd" d="M30.6328 5.53012C32.8108 8.2056 34 11.5501 34 15H30.0926C30.0926 12.4488 29.2131 9.97552 27.6025 7.99699C25.9918 6.01846 23.7484 4.65561 21.2502 4.13808C18.752 3.62056 16.1517 3.97999 13.8876 5.15582C11.8446 6.21682 10.188 7.88401 9.13922 9.91966L15 14.9984L1.87644 15L0 2.00002L6.12339 7.30628C7.54474 4.92741 9.60492 2.977 12.0867 1.68812C15.1484 0.0981011 18.6646 -0.387946 22.0428 0.311883C25.421 1.01171 28.4547 2.85464 30.6328 5.53012Z" fill="#83978B"/>
</svg>
